<?xml version="1.0" encoding="UTF-8"?>
<svg id="Lager_2" data-name="Lager 2" xmlns="http://www.w3.org/2000/svg" viewBox="0 0 50.38 54.42">
  <defs>
    <style>
      .cls-1 {
        fill: #492727;
      }

      .cls-1, .cls-2, .cls-3 {
        fill-rule: evenodd;
        stroke-width: 0px;
      }

      .cls-2 {
        fill: #ffa31d;
      }

      .cls-3 {
        fill: #fff;
      }
    </style>
  </defs>
  <g id="Layer_1" data-name="Layer 1">
    <g>
      <path class="cls-1" d="m50.36,39.26c.45-7.47-7.79-11.8-12.15-14.42-.98-2.58-2.83-4.3-4.86-5.83,2.14-3.87-1.02-8.14-4.37-9.07.75-2.87,1.26-6.84,3.24-7.94-.08,1.05.01,1.93.49,2.43,3.35,1.72,3.6-3.65,1.3-4.37-5.61-.73-5.26,5.85-6.97,9.56-.99-.12-1.52.21-2.43.16-.05-4.44-1.75-7.21-4.37-9.07-2.28-.2-4.23.28-4.86,1.94-.63,1.66.07,4.43,1.78,4.37,2.77-.08.64-3.77,1.78-4.7,3.05,1,3.44,4.66,4.05,8.1-3.08.71-4.36,5.42-3.08,8.91-2.19.45-3.04,2.91-4.7,4.05-1.4.97-3.41,1.31-5.02,2.27C4.76,28.87-.98,32.78.14,41.53c.19,1.51,2.33,3.94,3.4,4.54,3.66,2.02,7.4-.5,10.04-2.59.69,3.52,3.06,5.28,5.35,7.45,1.82,1.73,3.16,3.11,5.67,3.4,8.35.98,11.16-5.79,13.93-10.85,1.88,1.33,4.87,3.24,8.26,2.11,2.2-.74,3.41-3.71,3.56-6.32Z"/>
      <path class="cls-2" d="m30.6,17.88c-2.46-1.11-5.6.01-8.1.32-.54-1.52-.27-3.63.49-4.54,2.44-2.95,10.55.35,7.61,4.21Z"/>
      <path class="cls-2" d="m32.54,22.25c-3.5.32-7.21-.57-10.85-.65,2.85-2.57,8.23-1.06,10.85.65Z"/>
      <path class="cls-3" d="m18.77,24.68c-1.1,1.22-2.64,2-3.24,3.73,1.46-.54,3.1-2.3,4.7-3.24-.64,6.19-4.06,13.19-8.42,17.01-1.57,1.38-4.23,2.5-7.45,1.94-1.28-1.49-2.27-3.63-1.62-6.48,1.05-4.61,6.67-9.1,11.5-11.5,1.72-.86,2.75-1.89,4.54-1.46Zm-11.66,13.28c.86.25,1.28-.89,1.78-1.46,1.3-1.48,2.79-2.91,3.56-4.7.09,0,.18-.13,0-.16-2.1,1.68-4.49,3.93-5.35,6.32Z"/>
      <path class="cls-2" d="m22.5,25.17c2.19.41,4.53.65,6.97.81.19.51.55.86.65,1.46h-7.78c.25-.56.14-1.48.16-2.27Z"/>
      <path class="cls-3" d="m36.11,26.46c0-.16.2-.13.32-.16,2.41,1.59,5.42,3.34,7.94,5.83,1.49,1.48,3.57,4.07,3.24,6.97-.29,2.57-2.97,4.39-6.48,3.24-.97-.32-2.36-1.64-3.08-2.43-2.86-3.15-4.33-9.18-5.99-12.96,2.29-1.5,3.28.74,4.54,2.11,2.23,2.44,4.62,6.24,6.64,8.42-.98-4.42-4.34-7.86-7.13-11.02Z"/>
      <path class="cls-2" d="m31.41,32.62c.78,1.76,1.63,3.45,2.43,5.18-5.72.21-10.34-.68-14.9-1.62.43-1.3.93-2.53,1.62-3.56h10.85Z"/>
      <path class="cls-2" d="m35.14,42.66c-.16.71-.56,1.17-.81,1.78-6.24-.35-13.41.23-18.14-1.62-.42-1.16-.31-2.1.32-2.92,5.31,1.82,11.49,2.76,18.63,2.75Z"/>
      <path class="cls-2" d="m20.88,48.17c3.35.35,6.55-.05,10.04,0,.18.44-.69,1.25-1.3,1.62-3.27,1.96-7.52,1.52-8.75-1.62Z"/>
    </g>
  </g>
</svg>